<?xml version="1.0"?>
<svg xmlns="http://www.w3.org/2000/svg" xmlns:xlink="http://www.w3.org/1999/xlink" xmlns:svgjs="http://svgjs.com/svgjs" version="1.1" x="0" y="0" viewBox="0 0 74 74" style="enable-background:new 0 0 512 512" xml:space="preserve" class=""><g><path xmlns="http://www.w3.org/2000/svg" d="m44.91 40.59v-34.27a4.328 4.328 0 0 0 -4.32-4.32h-34.27a4.328 4.328 0 0 0 -4.32 4.32v34.27a4.328 4.328 0 0 0 4.32 4.32h34.27a4.328 4.328 0 0 0 4.32-4.32zm-31.223-21.736a5.166 5.166 0 1 1 3.654-1.513 5.134 5.134 0 0 1 -3.654 1.513zm9.768 9.769a5.168 5.168 0 1 1 3.654-1.514 5.131 5.131 0 0 1 -3.654 1.514zm13.423 8.255a5.168 5.168 0 1 1 0-7.308 5.136 5.136 0 0 1 0 7.308z" fill="#fff" data-original="#000000" style="" class=""/><path xmlns="http://www.w3.org/2000/svg" d="m67.68 29.09h-20.77v11.5a6.327 6.327 0 0 1 -6.32 6.32h-11.5v20.77a4.328 4.328 0 0 0 4.32 4.32h34.27a4.328 4.328 0 0 0 4.32-4.32v-34.27a4.328 4.328 0 0 0 -4.32-4.32zm-27.639 37.126a5.168 5.168 0 1 1 5.167-5.167 5.173 5.173 0 0 1 -5.167 5.167zm21.008 0a5.168 5.168 0 1 1 5.168-5.167 5.173 5.173 0 0 1 -5.168 5.167zm0-21.008a5.168 5.168 0 1 1 5.168-5.167 5.173 5.173 0 0 1 -5.168 5.167z" fill="#fff" data-original="#000000" style="" class=""/></g></svg>
