<?xml version="1.0"?>
<svg xmlns="http://www.w3.org/2000/svg" xmlns:xlink="http://www.w3.org/1999/xlink" xmlns:svgjs="http://svgjs.com/svgjs" version="1.1" x="0" y="0" viewBox="0 0 511.999 511.999" style="enable-background:new 0 0 512 512" xml:space="preserve" class=""><g>
<g xmlns="http://www.w3.org/2000/svg">
	<g>
		<path d="M375.979,210.052c-52.169,0-97.512-29.746-119.979-73.171c-22.467,43.425-67.81,73.171-119.979,73.171h-29.995v59.99    c0,82.829,67.145,149.974,149.974,149.974c82.828,0,149.974-67.146,149.974-149.974v-59.99H375.979z M196.01,240.047    c8.283,0,14.997,6.713,14.997,14.997c0,8.283-6.715,14.997-14.997,14.997c-8.283,0-14.997-6.715-14.997-14.997    C181.013,246.76,187.728,240.047,196.01,240.047z M325.992,363.234c-19.274,17.268-44.128,26.787-69.993,26.787    c-25.865,0-50.719-9.519-69.993-26.787c-6.181-5.536-6.693-15.012-1.172-21.178c5.595-6.166,15.041-6.679,21.178-1.172    c27.563,24.693,72.408,24.693,99.973,0c6.151-5.521,15.612-4.994,21.178,1.172C332.685,348.222,332.173,357.698,325.992,363.234z     M315.989,270.041c-8.283,0-14.997-6.715-14.997-14.997c0-8.284,6.715-14.997,14.997-14.997c8.283,0,14.997,6.713,14.997,14.997    C330.987,263.327,324.272,270.041,315.989,270.041z" fill="#fff" data-original="#000000" style="" class=""/>
	</g>
</g>
<g xmlns="http://www.w3.org/2000/svg">
	<g>
		<path d="M106.026,180.058h29.995v-0.001c57.881,0,104.982-47.101,104.982-104.982V31.596    C165.321,39.223,106.026,102.367,106.026,180.058z" fill="#fff" data-original="#000000" style="" class=""/>
	</g>
</g>
<g xmlns="http://www.w3.org/2000/svg">
	<g>
		<path d="M270.997,31.596v43.48c0,57.881,47.101,104.982,104.982,104.982h29.995C405.974,102.367,346.678,39.223,270.997,31.596z" fill="#fff" data-original="#000000" style="" class=""/>
	</g>
</g>
<g xmlns="http://www.w3.org/2000/svg">
	<g>
		<path d="M436.968,420.015h-81.699c-28.481,18.914-62.593,29.995-99.27,29.995c-36.677,0-70.789-11.081-99.27-29.995H75.031    c-41.415,0-74.987,35.572-74.987,76.987c0,8.283,6.715,14.997,14.997,14.997h481.916c8.283,0,14.997-6.715,14.997-14.997    C511.955,455.587,478.383,420.015,436.968,420.015z" fill="#fff" data-original="#000000" style="" class=""/>
	</g>
</g>
<g xmlns="http://www.w3.org/2000/svg">
	<g>
		<path d="M435.968,182.187v87.855c0,9.77-0.998,19.293-2.503,28.644c27.096-5.769,47.495-29.843,47.495-58.639    C480.961,212.17,461.771,188.893,435.968,182.187z" fill="#fff" data-original="#000000" style="" class=""/>
	</g>
</g>
<g xmlns="http://www.w3.org/2000/svg">
	<g>
		<path d="M76.031,270.041v-87.855c-25.803,6.706-44.992,29.984-44.992,57.86c0,28.796,20.398,52.87,47.495,58.639    C77.029,289.334,76.031,279.813,76.031,270.041z" fill="#fff" data-original="#000000" style="" class=""/>
	</g>
</g>
<g xmlns="http://www.w3.org/2000/svg">
	<g>
		<path d="M478.866,14.925c-1.348-5.36-5.521-9.534-10.882-10.882c-6.005-1.509-59.829-14.075-88.506,14.544    c-5.822,5.825-9.6,12.815-12.455,20.112c26.716,21.029,47.272,49.417,58.719,82.12c13.848-1.946,27.957-6.767,38.579-17.388    C492.94,74.797,480.389,20.96,478.866,14.925z" fill="#fff" data-original="#000000" style="" class=""/>
	</g>
</g>
<g xmlns="http://www.w3.org/2000/svg">
	<g>
		<path d="M134.38,18.587C105.733-10.031,51.894,2.521,45.874,4.044c-5.36,1.347-9.534,5.521-10.881,10.881    c-1.523,6.034-14.075,59.873,14.544,88.506c10.19,10.179,23.571,14.927,36.848,17.039c11.67-33.118,32.703-61.767,60-82.825    C143.551,30.745,139.918,24.128,134.38,18.587z" fill="#fff" data-original="#000000" style="" class=""/>
	</g>
</g>
<g xmlns="http://www.w3.org/2000/svg">
</g>
<g xmlns="http://www.w3.org/2000/svg">
</g>
<g xmlns="http://www.w3.org/2000/svg">
</g>
<g xmlns="http://www.w3.org/2000/svg">
</g>
<g xmlns="http://www.w3.org/2000/svg">
</g>
<g xmlns="http://www.w3.org/2000/svg">
</g>
<g xmlns="http://www.w3.org/2000/svg">
</g>
<g xmlns="http://www.w3.org/2000/svg">
</g>
<g xmlns="http://www.w3.org/2000/svg">
</g>
<g xmlns="http://www.w3.org/2000/svg">
</g>
<g xmlns="http://www.w3.org/2000/svg">
</g>
<g xmlns="http://www.w3.org/2000/svg">
</g>
<g xmlns="http://www.w3.org/2000/svg">
</g>
<g xmlns="http://www.w3.org/2000/svg">
</g>
<g xmlns="http://www.w3.org/2000/svg">
</g>
</g></svg>
