<?xml version="1.0"?>
<svg xmlns="http://www.w3.org/2000/svg" xmlns:xlink="http://www.w3.org/1999/xlink" xmlns:svgjs="http://svgjs.com/svgjs" version="1.1" x="0" y="0" viewBox="0 0 512 512" style="enable-background:new 0 0 512 512" xml:space="preserve" class=""><g><g xmlns="http://www.w3.org/2000/svg"><path d="m261.973 84.5c-.758-2.651-3.214-4.505-5.973-4.505s-5.215 1.854-5.973 4.505l-10.713 37.495h33.372z" fill="#fff" data-original="#000000" style="" class=""/><path d="m213.686 102.492c.025-.087.028-.096 0 0z" fill="#fff" data-original="#000000" style="" class=""/><path d="m213.28 103.91c-.01.03-.02.07-.03.11.01-.04.03-.08.04-.12zm-.19.65c-.03.1-.06.2-.08.3.04-.13.08-.26.12-.41-.02.04-.03.07-.04.11zm.59-2.06c0 .02-.01.04-.01.06.01-.02.01-.04.02-.06zm0 0c0 .02-.01.04-.01.06.01-.02.01-.04.02-.06zm-.43 1.52c.01-.04.03-.08.04-.12l-.01.01c-.01.03-.02.07-.03.11zm-.24.84c.04-.13.08-.26.12-.41-.02.04-.03.07-.04.11-.03.1-.06.2-.08.3zm.67-2.36c0 .02-.01.04-.01.06.01-.02.01-.04.02-.06z" fill="#fff" data-original="#000000" style="" class=""/><path d="m360 0h-208c-8.28 0-15 7.72-15 16v208.87c0 8.26 6.68 14.96 14.93 15h208.07c8.28 0 15-6.72 15-15v-208.87c0-8.28-6.72-16-15-16zm-56.01 192c-6.53 0-12.53-4.29-14.41-10.88l-8.33-29.12h-50.51l-8.32 29.12c-2.27 7.96-10.58 12.58-18.54 10.3-7.97-2.28-12.58-10.58-10.3-18.54 11.49-40.22 16.67-58.34 18.8-65.81 0 0 .01-.03.02-.07 0-.01.01-.03.01-.04s.01-.02.01-.03c.02-.08.05-.16.07-.24s.04-.16.07-.25c.01-.03.02-.07.03-.1 0 0 0 0 0-.01 0-.02.01-.03.01-.04.01-.01.01-.03.02-.05 0 0 0 0 0-.01.01-.04.03-.09.04-.14.03-.09.05-.18.08-.29.01-.04.02-.08.04-.13.01-.03.02-.07.03-.1.01-.06.03-.12.05-.19.02-.06.04-.13.06-.2v-.01c.03-.1.06-.21.09-.31.02-.1.05-.2.08-.3s.06-.19.08-.28c.01-.01.01-.01.01-.02.02-.06.03-.12.05-.17.01-.02.01-.04.02-.07.01-.04.02-.08.03-.11.01-.05.02-.09.04-.13.02-.06.04-.12.05-.18 0-.01 0-.01 0-.02.02-.04.02-.07.03-.1.03-.07.04-.13.06-.2.02-.09.05-.17.07-.25 0-.01 0-.02.01-.02 0-.01 0-.01 0-.02.01-.01.01-.03.02-.05 0-.01 0-.01 0-.01.01-.05.03-.1.04-.15.01-.01.01-.03.02-.05.01-.05.03-.1.04-.15 0 0 0-.01.01-.02 0-.02.01-.04.01-.06h.01v-.01c1.23-4.34 3.51-12.31 7.49-26.23 4.42-15.47 18.74-26.26 34.82-26.26s30.4 10.8 34.82 26.26l27.6 96.62c2.73 9.56-4.45 19.12-14.43 19.12z" fill="#fff" data-original="#000000" style="" class=""/><path d="m496 272.13h-208c-8.28 0-15 6.72-15 15v208.87c0 8.28 6.72 16 15 16h208c8.28 0 16-7.72 16-16v-208.87c0-8.281-7.72-15-16-15zm-55 158.87c8.28 0 15 6.72 15 15s-6.72 15-15 15h-96c-12.79 0-19.71-15.05-11.39-24.76l74.78-87.24h-54.66c-8.29 0-15-6.72-15-15s6.71-15 15-15h87.27c12.79 0 19.71 15.05 11.39 24.76l-74.78 87.24z" fill="#fff" data-original="#000000" style="" class=""/><path d="m143.373 442.708 43.289 43.74c.001.001.002.002.003.003l25.285 25.549h12.05c8.284 0 15-6.716 15-15v-65.271l-39.429-35.847z" fill="#fff" data-original="#000000" style="" class=""/><path d="m47.48 328.08c-18.03 0-34.59-6.45-47.48-17.17v-23.91c0-8.28 6.72-15 15-15h104.56c-8.16 32.2-37.39 56.08-72.08 56.08z" fill="#fff" data-original="#000000" style="" class=""/><path d="m239 287v104.18l-28.91-26.28c-5.54-5.03-13.94-5.221-19.69-.42l-68.21 56.829-31.53-31.859c-5.09-5.15-13.13-5.92-19.11-1.84l-71.55 48.77v-88.62c14.28 7.24 30.41 11.32 47.48 11.32 51.87 0 95.1-37.66 103.77-87.08h72.75c8.28 0 15 6.719 15 15z" fill="#fff" data-original="#000000" style="" class=""/><path d="m165.338 507.552-34.166-34.522-53.046-53.6-78.126 53.259v24.311c0 8.284 6.716 15 15 15h154.741l-4.401-4.446c0-.002-.001-.002-.002-.002z" fill="#fff" data-original="#000000" style="" class=""/></g></g></svg>
