<svg id="Icons" version="1.1" viewBox="0 0 32 32" xml:space="preserve" xmlns="http://www.w3.org/2000/svg" enable-background="new 0 0 32 32"><path d="M23 15.2c-1.9.5-4.2.8-7 .8s-5.1-.3-7-.8v2c2.2.5 4.6.8 7 .8s4.8-.3 7-.8v-2z" fill="#fff" class="fill-000000"></path><path d="M16 6C9.2 6 2 8.1 2 12c0 2.1 2.1 3.6 5 4.7v-2.1c-1.9-.8-3-1.7-3-2.5 0-1.7 4.6-4 12-4s12 2.3 12 4c0 .8-1.1 1.8-3 2.5v2.1c2.9-1 5-2.6 5-4.7 0-3.9-7.2-6-14-6z" fill="#fff" class="fill-000000"></path><path d="M7 14.5c-1.9-.8-3-1.7-3-2.5 0-.3.2-.7.5-1H3c-.6 0-1 .4-1 1v12c0 2.1 2.1 3.6 5 4.7V14.5zM23 15.2c-1.9.5-4.2.8-7 .8s-5.1-.3-7-.8v14c2.2.5 4.6.8 7 .8s4.8-.3 7-.8v-14zm-3.9 10.5c.1.4 0 .9-.4 1.1-.2.1-.4.2-.6.2s-.4-.1-.6-.2c-.9-.7-2.2-.7-3.1 0-.4.3-.8.3-1.2 0-.4-.3-.5-.7-.4-1.1.4-1.1 0-2.3-1-3-.4-.3-.5-.7-.4-1.1.1-.4.5-.7 1-.7 1.2 0 2.2-.7 2.5-1.8.1-.4.5-.7 1-.7s.8.3 1 .7c.4 1.1 1.4 1.8 2.5 1.8.4 0 .8.3 1 .7.1.4 0 .9-.4 1.1-.9.7-1.3 1.9-.9 3zM29 11h-1.5c.3.3.5.7.5 1 0 .8-1.1 1.8-3 2.5v14.1c2.9-1 5-2.6 5-4.7V12c0-.6-.4-1-1-1z" fill="#fff" class="fill-000000"></path><g><path d="M14 12c-.4 0-.7-.2-.9-.6-.2-.5 0-1.1.5-1.3l15-7c.5-.2 1.1 0 1.3.5s0 1.1-.5 1.3l-15 7c-.1.1-.3.1-.4.1z" fill="#fff" class="fill-000000"></path></g><g><path d="M12 15c-1.7 0-3-1.3-3-3s1.3-3 3-3 3 1.3 3 3-1.3 3-3 3z" fill="#fff" class="fill-000000"></path></g></svg>