<?xml version="1.0"?>
<svg xmlns="http://www.w3.org/2000/svg" xmlns:xlink="http://www.w3.org/1999/xlink" xmlns:svgjs="http://svgjs.com/svgjs" version="1.1" x="0" y="0" viewBox="0 0 511 511" style="enable-background:new 0 0 512 512" xml:space="preserve" class=""><g><g xmlns="http://www.w3.org/2000/svg"><path d="m396.72 135c10.682 10.682 94.332 94.333 113.78 113.78v-227.57c-6.561 6.576-106.864 106.874-113.78 113.79z" fill="#fff" data-original="#000000" style=""/><path d="m297.29 192 57-56.99c-24.167-24.167-88.883-88.883-115.27-115.27l-39.76 172.26z" fill="#fff" data-original="#000000" style=""/><path d="m375.51 113.79c126.754-126.769 108.962-108.961 113.78-113.79h-227.57c12.738 12.738 98.987 98.987 113.79 113.79z" fill="#fff" data-original="#000000" style=""/><path d="m191.06 340.65 97.44-22.49c0-16.476 0-58.071 0-74.95-1.853 1.854-95.184 95.184-97.44 97.44z" fill="#fff" data-original="#000000" style=""/><path d="m375.5 156.22-57 56.99v98.03l172.26-39.76c-11.881-11.881-99.255-99.255-115.26-115.26z" fill="#fff" data-original="#000000" style=""/><path d="m267.29 222c-15.973 0-57.092 0-74.95 0l-22.49 97.44c3.331-3.331 95.592-95.591 97.44-97.44z" fill="#fff" data-original="#000000" style=""/><path d="m295.5 432h-248c-9.37 0-17-7.63-17-17s7.63-17 17-17h67.57c12.02 0 23.32-4.68 31.82-13.18 82.599-82.6 18.857-18.854 44.153-44.15l-21.213-21.213c-7.323 7.323-40.074 40.077-44.15 44.152-2.83 2.83-6.6 4.39-10.61 4.39h-67.57c-25.92 0-47 21.08-47 47s21.08 47 47 47h248c27.02 0 49 21.98 49 49h30c0-43.559-35.44-78.999-79-78.999z" fill="#fff" data-original="#000000" style=""/></g></g></svg>
