<?xml version="1.0"?>
<svg xmlns="http://www.w3.org/2000/svg" xmlns:xlink="http://www.w3.org/1999/xlink" xmlns:svgjs="http://svgjs.com/svgjs" version="1.1" x="0" y="0" viewBox="0 0 512 512" style="enable-background:new 0 0 512 512" xml:space="preserve" class=""><g><g xmlns="http://www.w3.org/2000/svg"><circle cx="203.243" cy="112" r="17" fill="#fff" data-original="#000000" style=""/><path d="m411.107 182.136c-7.508-3.51-16.434-.27-19.941 7.234l-82.39 176.218c-14.517-44.411-56.334-76.588-105.533-76.588-31.921 0-60.732 13.549-81 35.191v-85.77c28.75-2.164 50.762-10.255 66-18.209v-63.681c-18.58-6.276-32-23.86-32-44.531 0-25.916 21.084-47 47-47s47 21.084 47 47c0 20.671-13.42 38.255-32 44.531v63.686c17.785 9.293 44.799 18.783 81 18.783 8.284 0 15-6.716 15-15v-112c0-61.757-49.794-112-111-112s-111 50.243-111 112v288c0 61.757 49.794 112 111 112 46.306 0 86.073-28.762 102.694-69.508l112.405-240.415c3.508-7.505.269-16.432-7.235-19.941zm-132.789 248.597c-11.578 29.414-40.706 51.267-75.075 51.267-44.663 0-81-36.785-81-82 0-44.663 36.337-81 81-81 56.914 0 96.736 57.702 75.075 111.733z" fill="#fff" data-original="#000000" style=""/></g></g></svg>
