<svg id="Icons" version="1.1" viewBox="0 0 32 32" xml:space="preserve" xmlns="http://www.w3.org/2000/svg" enable-background="new 0 0 32 32"><path d="M7 26h20c.6 0 1-.4 1-1V3c0-.6-.4-1-1-1H8C5.8 2 4 3.8 4 6v21c0 1.7 1.3 3 3 3h20c.6 0 1-.4 1-1s-.4-1-1-1H7c-.6 0-1-.4-1-1s.4-1 1-1zm3.1-7.4 5-10c.3-.7 1.5-.7 1.8 0l5 10c.2.5 0 1.1-.4 1.3-.2.1-.3.1-.5.1-.4 0-.7-.2-.9-.6L18.9 17h-5.8l-1.2 2.4c-.2.5-.8.7-1.3.4-.5-.2-.7-.8-.5-1.2z" fill="#fff" class="fill-000000"></path><path d="M16 11.2 14.1 15h3.8z" fill="#fff" class="fill-000000"></path></svg>