<?xml version="1.0"?>
<svg xmlns="http://www.w3.org/2000/svg" xmlns:xlink="http://www.w3.org/1999/xlink" xmlns:svgjs="http://svgjs.com/svgjs" version="1.1" x="0" y="0" viewBox="0 0 512 512" style="enable-background:new 0 0 512 512" xml:space="preserve" class=""><g>
<g xmlns="http://www.w3.org/2000/svg">
	<g>
		<path d="M76,90c-0.747,0-1.388-0.32-2.106-0.425c-4.276,9.681-7.714,19.799-9.871,30.425h54.214C112.024,102.578,95.53,90,76,90z" fill="#fff" data-original="#000000" style="" class=""/>
	</g>
</g>
<g xmlns="http://www.w3.org/2000/svg">
	<g>
		<path d="M211,0c-49.598,0-93.221,24.366-120.529,61.465C124.915,68.234,151,98.602,151,135v45h210v-30C361,67.158,293.842,0,211,0    z" fill="#fff" data-original="#000000" style="" class=""/>
	</g>
</g>
<g xmlns="http://www.w3.org/2000/svg">
	<g>
		<rect x="61" y="150" width="60" height="30" fill="#fff" data-original="#000000" style="" class=""/>
	</g>
</g>
<g xmlns="http://www.w3.org/2000/svg">
	<g>
		<path d="M376,420h-65.713c-28.486,18.917-62.604,30-99.287,30s-70.801-11.083-99.287-30H76c-41.422,0-76,35.578-76,77    c0,8.284,7.716,15,16,15h420c8.284,0,15-6.716,15-15C451,455.578,417.422,420,376,420z" fill="#fff" data-original="#000000" style="" class=""/>
	</g>
</g>
<g xmlns="http://www.w3.org/2000/svg">
	<g>
		<path d="M391,212.754V270c0,9.543-0.965,18.845-2.402,27.991C407.274,292.515,421,275.449,421,255    C421,235.435,408.437,218.952,391,212.754z" fill="#fff" data-original="#000000" style="" class=""/>
	</g>
</g>
<g xmlns="http://www.w3.org/2000/svg">
	<g>
		<path d="M31,270v-57.246C13.563,218.952,0,235.435,0,255c0,20.449,14.726,37.515,33.402,42.991C31.965,288.845,31,279.543,31,270z    " fill="#fff" data-original="#000000" style="" class=""/>
	</g>
</g>
<g xmlns="http://www.w3.org/2000/svg">
	<g>
		<path d="M482,120h-91v60h91c16.569,0,30-13.433,30-30C512,133.431,498.569,120,482,120z" fill="#fff" data-original="#000000" style="" class=""/>
	</g>
</g>
<g xmlns="http://www.w3.org/2000/svg">
	<g>
		<path d="M61,210v60c0,82.842,67.158,150,150,150s150-67.158,150-150v-60H61z M151,240c8.284,0,15,6.714,15,15    c0,8.284-6.716,15-15,15s-15-6.716-15-15C136,246.714,142.716,240,151,240z M281.005,363.208C261.728,380.479,236.869,390,211,390    s-50.728-9.521-70.005-26.792c-6.182-5.537-6.694-15.015-1.172-21.182c5.552-6.182,15.059-6.665,21.182-1.172    c27.568,24.698,72.422,24.698,99.99,0c6.138-5.508,15.645-5.01,21.182,1.172C287.699,348.193,287.187,357.671,281.005,363.208z     M271,270c-8.284,0-15-6.716-15-15c0-8.286,6.716-15,15-15s15,6.714,15,15C286,263.284,279.284,270,271,270z" fill="#fff" data-original="#000000" style="" class=""/>
	</g>
</g>
<g xmlns="http://www.w3.org/2000/svg">
</g>
<g xmlns="http://www.w3.org/2000/svg">
</g>
<g xmlns="http://www.w3.org/2000/svg">
</g>
<g xmlns="http://www.w3.org/2000/svg">
</g>
<g xmlns="http://www.w3.org/2000/svg">
</g>
<g xmlns="http://www.w3.org/2000/svg">
</g>
<g xmlns="http://www.w3.org/2000/svg">
</g>
<g xmlns="http://www.w3.org/2000/svg">
</g>
<g xmlns="http://www.w3.org/2000/svg">
</g>
<g xmlns="http://www.w3.org/2000/svg">
</g>
<g xmlns="http://www.w3.org/2000/svg">
</g>
<g xmlns="http://www.w3.org/2000/svg">
</g>
<g xmlns="http://www.w3.org/2000/svg">
</g>
<g xmlns="http://www.w3.org/2000/svg">
</g>
<g xmlns="http://www.w3.org/2000/svg">
</g>
</g></svg>
