<?xml version="1.0"?>
<svg xmlns="http://www.w3.org/2000/svg" xmlns:xlink="http://www.w3.org/1999/xlink" xmlns:svgjs="http://svgjs.com/svgjs" version="1.1" x="0" y="0" viewBox="0 0 512.016 512.016" style="enable-background:new 0 0 512 512" xml:space="preserve" class=""><g><g xmlns="http://www.w3.org/2000/svg"><path d="m340.211 107.028-2.264-9.055c-3.675-14.703-16.828-24.973-31.985-24.973-1.638 0-2.97-1.332-2.97-2.97v-22.03c0-25.935-20.961-48-47-48-26.038 0-47 22.064-47 48v22.03c0 1.638-1.332 2.97-2.97 2.97-15.156 0-28.31 10.27-31.985 24.974l-2.264 9.055c2.485-.038 164.926-.054 168.438-.001z" fill="#fff" data-original="#000000" style="" class=""/><path d="m379.404 173.894c-1.826-20.965-19.421-36.894-40.241-36.894-181.453 0-168.885-.418-175.124.973-20.402 4.549-33.912 23.872-31.286 44.52l12.407 97.483c4.052 31.835 3.955 64.114-.288 95.938l-11.219 84.138c-3.612 27.092 17.522 51.948 44.605 51.948 169.855 0 156.801.114 160.201-.26 23.239-2.561 40.823-23.224 40.26-46.758-.085-3.533.629 2.689-11.605-89.067-4.243-31.825-4.34-64.104-.288-95.938 13.44-105.604 13.102-100.053 12.578-106.083zm-187.411 51.106h16c8.284 0 15 6.716 15 15s-6.716 15-15 15h-16c-8.284 0-15-6.716-15-15s6.716-15 15-15zm16 190h-16c-8.284 0-15-6.716-15-15s6.716-15 15-15h16c8.284 0 15 6.716 15 15s-6.716 15-15 15zm24-80h-32c-8.284 0-15-6.716-15-15s6.716-15 15-15h32c8.284 0 15 6.716 15 15s-6.716 15-15 15z" fill="#fff" data-original="#000000" style="" class=""/></g></g></svg>
