<?xml version="1.0"?>
<svg xmlns="http://www.w3.org/2000/svg" xmlns:xlink="http://www.w3.org/1999/xlink" xmlns:svgjs="http://svgjs.com/svgjs" version="1.1" x="0" y="0" viewBox="0 0 64 64" style="enable-background:new 0 0 512 512" xml:space="preserve" class=""><g><g xmlns="http://www.w3.org/2000/svg" id="Glyph"><path d="m46.28 39.76a8.63 8.63 0 0 0 -.66-.81 22.165 22.165 0 0 1 -8.82 12.93 23.654 23.654 0 0 1 -13.51 3.76 41.065 41.065 0 0 1 -7.39-.75 27.917 27.917 0 0 0 32.1.07c1.04-4.47 1.53-10.61-1.72-15.2z" fill="#fff" data-original="#000000" style=""/><path d="m48.8 25.005a25.157 25.157 0 0 0 -17.472-5.119c-1.169 4.944.7 9.751 1.349 11.2 7.172.845 12.31 3.364 15.244 7.519 2.586 3.661 3.429 8.627 2.49 14.469a28.126 28.126 0 0 0 7.519-10.513c-.795-7.439-3.943-13.508-9.13-17.556z" fill="#fff" data-original="#000000" style=""/><path d="m22.271 45.19-.456.124a13.15 13.15 0 0 1 -3.13.375c-3.907 0-8.331-1.594-13.214-4.751a28.048 28.048 0 0 0 7.069 11.162c9.729 2.543 17.515 1.914 23.141-1.878 6.3-4.247 7.946-11.244 8.262-12.96-2.652-2.168-6.411-3.551-11.194-4.155-.743 2.628-3.442 10.081-10.478 12.083z" fill="#fff" data-original="#000000" style=""/><path d="m20.05 43.61c-2.64-4.89-8.01-16.77-4.71-27.47a21 21 0 0 1 7.47-10.58 28.034 28.034 0 0 0 -18.81 26.44 28.466 28.466 0 0 0 .64 5.95c5.96 4.26 11.13 6.16 15.41 5.66z" fill="#fff" data-original="#000000" style=""/><path d="m17.247 16.726c-3.234 10.488 2.8 22.739 4.84 26.436 6.188-2.023 8.43-9.409 8.856-11.045-.776-1.639-3.687-8.61-.694-15.3 2.109-4.715 6.65-8.147 13.5-10.227a27.809 27.809 0 0 0 -14.877-2.411c-6.046 2.928-9.96 7.147-11.625 12.547z" fill="#fff" data-original="#000000" style=""/><path d="m32.08 17.62c-.03.07-.05.14-.08.2a27.388 27.388 0 0 1 18.03 5.61 25.9 25.9 0 0 1 9.23 14.94 27.934 27.934 0 0 0 -13.04-30.47l.02.07c-7.34 1.84-12.11 5.08-14.16 9.65z" fill="#fff" data-original="#000000" style=""/></g></g></svg>
