<?xml version="1.0" encoding="UTF-8" standalone="no"?> <!-- Created with Vectornator for iOS (http://vectornator.io/) --><!DOCTYPE svg PUBLIC "-//W3C//DTD SVG 1.1//EN" "http://www.w3.org/Graphics/SVG/1.1/DTD/svg11.dtd">
<svg height="100%" style="fill-rule:nonzero;clip-rule:evenodd;stroke-linecap:round;stroke-linejoin:round;" xmlns:xlink="http://www.w3.org/1999/xlink" xmlns="http://www.w3.org/2000/svg" xml:space="preserve" width="100%" xmlns:vectornator="http://vectornator.io" version="1.1" viewBox="0 0 26 26">
<metadata>
<vectornator:setting key="DimensionsVisible" value="1"/>
<vectornator:setting key="PencilOnly" value="0"/>
<vectornator:setting key="SnapToPoints" value="0"/>
<vectornator:setting key="OutlineMode" value="0"/>
<vectornator:setting key="RulersVisible" value="1"/>
<vectornator:setting key="CMYKEnabledKey" value="0"/>
<vectornator:setting key="GuidesVisible" value="1"/>
<vectornator:setting key="SnapToEdges" value="0"/>
<vectornator:setting key="DisplayWhiteBackground" value="0"/>
<vectornator:setting key="doHistoryDisabled" value="0"/>
<vectornator:setting key="SnapToGuides" value="1"/>
<vectornator:setting key="TimeLapseWatermarkDisabled" value="0"/>
<vectornator:setting key="DynamicGuides" value="0"/>
<vectornator:setting key="SnapToGrid" value="0"/>
<vectornator:setting key="IsolateActiveLayer" value="0"/>
<vectornator:setting key="Units" value="Pixels"/>
</metadata>
<defs/>
<g id="Слой 1" vectornator:layerName="Слой 1">
<path d="M13+11C11.8954+11+11+11.8954+11+13C11+14.1046+11.8954+15+13+15C14.1046+15+15+14.1046+15+13C15+11.8954+14.1046+11+13+11Z" opacity="1" fill="#fff"/>
<path stroke="#000000" stroke-width="2" d="M42.7983+7.81021L28.0655+18.1517" fill="#fff" stroke-linecap="round" opacity="1" stroke-linejoin="round"/>
<path d="M18+15C16.8954+15+16+14.1046+16+13C16+11.8954+16.8954+11+18+11C19.1046+11+20+11.8954+20+13C20+14.1046+19.1046+15+18+15Z" opacity="1" fill="#fff"/>
<path d="M8+11C6.89543+11+6+11.8954+6+13C6+14.1046+6.89543+15+8+15C9.10457+15+10+14.1046+10+13C10+11.8954+9.10457+11+8+11Z" opacity="1" fill="#fff"/>
</g>
</svg>
