<?xml version="1.0" standalone="no"?>
<!DOCTYPE svg PUBLIC "-//W3C//DTD SVG 20010904//EN"
 "http://www.w3.org/TR/2001/REC-SVG-20010904/DTD/svg10.dtd">
<svg version="1.0" xmlns="http://www.w3.org/2000/svg"
 width="512.000000pt" height="512.000000pt" viewBox="0 0 512.000000 512.000000"
 preserveAspectRatio="xMidYMid meet">

<g transform="translate(0.000000,512.000000) scale(0.100000,-0.100000)"
fill="#fff" stroke="none">
<path d="M150 5100 c-24 -24 -25 -48 -4 -165 82 -477 305 -1020 599 -1460 377
-564 887 -1007 1507 -1309 92 -44 168 -84 168 -88 0 -3 -125 -82 -277 -174
-153 -92 -286 -174 -296 -182 -16 -14 -17 -58 -17 -648 l0 -633 33 -24 c51
-39 649 -404 674 -411 12 -4 36 -1 55 7 50 21 671 406 686 424 9 13 12 155 12
632 0 339 -4 621 -8 627 -4 6 -138 91 -299 189 l-291 179 192 96 c638 317
1122 739 1501 1310 299 450 516 989 595 1478 14 84 10 109 -24 145 -57 61
-107 21 -125 -100 -40 -277 -158 -646 -303 -953 -383 -809 -1025 -1439 -1845
-1809 l-132 -60 -140 63 c-574 261 -1079 666 -1446 1160 -339 457 -577 996
-685 1554 -29 153 -39 172 -87 172 -13 0 -32 -9 -43 -20z m2326 -3375 c-2 -7
-67 -49 -145 -94 -158 -93 -135 -92 -254 -13 -37 25 -64 49 -60 53 4 4 109 71
233 148 l225 140 3 -111 c1 -62 1 -117 -2 -123z m526 -117 c-48 -32 -91 -58
-95 -58 -4 0 -71 37 -147 83 l-140 82 0 122 0 122 234 -147 235 -146 -87 -58z
m-305 -90 l143 -83 -2 -364 -3 -363 -146 -84 -145 -84 -145 83 -144 83 -3 365
-2 365 142 82 c79 45 147 82 152 82 5 0 74 -37 153 -82z m-657 -29 l80 -51 0
-368 0 -367 -78 -52 c-43 -28 -81 -51 -85 -51 -4 0 -7 211 -7 470 0 259 2 470
5 470 2 0 40 -23 85 -51z m1096 -886 c-2 -3 -40 20 -85 49 l-81 53 0 365 0
365 83 53 82 53 3 -467 c1 -257 0 -469 -2 -471z m-800 -98 l144 -86 0 -120 c0
-93 -3 -119 -12 -113 -50 28 -436 269 -446 279 -11 10 4 23 75 68 48 31 90 57
92 57 2 0 68 -38 147 -85z m655 28 c49 -31 86 -60 82 -64 -5 -4 -109 -71 -233
-148 l-225 -140 -3 116 c-1 68 1 120 7 126 10 10 273 166 280 167 2 0 44 -26
92 -57z"/>
</g>
</svg>
