<?xml version="1.0" standalone="no"?>
<!DOCTYPE svg PUBLIC "-//W3C//DTD SVG 20010904//EN"
 "http://www.w3.org/TR/2001/REC-SVG-20010904/DTD/svg10.dtd">
<svg version="1.0" xmlns="http://www.w3.org/2000/svg"
 width="512.000000pt" height="512.000000pt" viewBox="0 0 512.000000 512.000000"
 preserveAspectRatio="xMidYMid meet">

<g transform="translate(0.000000,512.000000) scale(0.100000,-0.100000)"
fill="#fff" stroke="none">
<path d="M1740 5030 c-19 -19 -20 -33 -20 -460 l0 -440 -54 0 c-89 0 -86 14
-86 -395 l0 -351 130 -1329 c72 -732 138 -1359 147 -1395 35 -141 100 -248
219 -359 91 -85 215 -150 338 -177 114 -24 273 -16 381 20 257 87 455 315 495
572 6 38 65 658 130 1378 l120 1310 0 341 c0 398 3 385 -86 385 l-54 0 0 440
c0 427 -1 441 -20 460 -20 20 -33 20 -820 20 -787 0 -800 0 -820 -20z m1540
-375 l0 -275 -69 0 -68 0 5 195 c4 178 3 197 -13 215 -24 27 -70 26 -89 -2
-13 -17 -16 -51 -16 -148 0 -69 -3 -155 -7 -192 l-6 -68 -66 0 -66 0 3 196 c2
173 1 199 -14 215 -20 23 -53 24 -80 5 -17 -13 -19 -31 -24 -213 l-5 -198 -72
-3 -73 -3 0 205 c0 193 -1 206 -19 216 -11 5 -31 10 -44 10 -47 0 -52 -18 -55
-232 l-4 -198 -75 0 -75 0 4 198 c2 158 0 202 -11 215 -15 18 -57 22 -80 8
-20 -13 -29 -97 -30 -273 l-1 -148 -72 0 -71 0 7 191 c6 165 5 194 -9 215 -10
16 -25 24 -44 24 -54 0 -59 -17 -67 -233 l-7 -197 -63 0 -64 0 0 275 0 275
720 0 720 0 0 -275z m0 -460 l0 -65 -720 0 -720 0 0 65 0 65 720 0 720 0 0
-65z m140 -455 l0 -270 -577 0 c-522 0 -578 -2 -595 -17 -22 -20 -23 -61 -1
-85 15 -17 47 -18 595 -18 l579 0 -6 -42 c-3 -24 -35 -362 -70 -753 -36 -390
-72 -743 -81 -783 -43 -198 -189 -381 -381 -476 -115 -57 -179 -71 -328 -70
-115 0 -139 3 -210 28 -245 84 -428 283 -480 521 -8 38 -47 392 -85 785 -38
393 -72 732 -75 753 l-5 37 190 0 c177 0 191 1 210 20 11 11 20 29 20 40 0 11
-9 29 -20 40 -19 19 -33 20 -210 20 l-190 0 0 270 0 270 860 0 860 0 0 -270z
m-1367 -2466 c91 -69 231 -132 345 -156 112 -23 262 -20 372 8 147 36 347 160
429 263 18 23 35 40 38 38 8 -8 -58 -673 -73 -732 -44 -176 -164 -323 -332
-405 -234 -114 -526 -60 -706 130 -135 143 -155 207 -195 620 -18 173 -34 333
-37 355 l-6 40 51 -57 c28 -31 79 -78 114 -104z"/>
<path d="M1860 3180 c-18 -18 -19 -28 -14 -93 9 -91 17 -114 48 -129 20 -9 30
-8 52 7 26 17 27 18 22 106 -4 67 -10 95 -23 109 -23 26 -60 25 -85 0z"/>
<path d="M2462 2999 c-24 -12 -54 -36 -66 -53 -42 -55 -48 -96 -44 -328 l3
-216 30 -44 c88 -124 262 -124 350 0 l30 44 3 224 c3 221 3 226 -22 279 -34
75 -86 108 -175 113 -53 2 -75 -1 -109 -19z m143 -105 c26 -10 45 -59 45 -119
l0 -55 -90 0 -90 0 0 65 c0 57 3 69 25 90 24 25 73 33 110 19z m45 -373 c0
-70 -3 -83 -24 -108 -34 -39 -98 -39 -132 0 -21 25 -24 38 -24 108 l0 79 90 0
90 0 0 -79z"/>
<path d="M1894 2876 c-15 -12 -19 -25 -17 -68 4 -92 91 -942 99 -961 16 -42
80 -41 103 1 7 12 -6 178 -39 511 -52 525 -53 531 -105 531 -11 0 -30 -6 -41
-14z"/>
</g>
</svg>
