<?xml version="1.0" standalone="no"?>
<!DOCTYPE svg PUBLIC "-//W3C//DTD SVG 20010904//EN"
 "http://www.w3.org/TR/2001/REC-SVG-20010904/DTD/svg10.dtd">
<svg version="1.0" xmlns="http://www.w3.org/2000/svg"
 width="900.000000pt" height="900.000000pt" viewBox="0 0 900.000000 900.000000"
 preserveAspectRatio="xMidYMid meet">

<g transform="translate(0.000000,900.000000) scale(0.100000,-0.100000)"
fill="#fff" stroke="none">
<path d="M3354 8535 c-230 -50 -422 -220 -501 -447 -35 -98 -43 -253 -18 -362
44 -199 182 -368 383 -470 l52 -26 0 -465 0 -465 -1107 0 c-1235 0 -1184 2
-1328 -69 -148 -74 -251 -178 -322 -327 -65 -137 -64 -99 -61 -1445 3 -1147 4
-1217 22 -1269 76 -228 247 -397 472 -467 57 -17 192 -18 3554 -18 3362 0
3497 1 3554 18 225 70 396 239 472 467 18 52 19 122 22 1269 3 1346 4 1308
-61 1445 -68 142 -170 248 -307 320 -145 76 -44 70 -1307 74 l-1133 3 1 467 0
467 77 37 c133 64 237 168 303 304 53 110 72 203 66 329 -11 246 -151 462
-369 570 -159 78 -98 75 -1318 74 -862 0 -1098 -3 -1146 -14z m2281 -470 c92
-57 131 -182 86 -281 -23 -49 -88 -107 -140 -122 -60 -18 -2112 -16 -2164 2
-90 32 -137 97 -145 198 -5 69 29 153 76 187 75 53 14 51 1168 48 l1071 -2 48
-30z m-345 -1315 l0 -450 -785 0 -785 0 0 450 0 450 785 0 785 0 0 -450z
m-2020 -921 c0 -12 -32 -54 -78 -102 -440 -460 -600 -1133 -416 -1743 84 -278
228 -523 435 -737 49 -51 89 -93 89 -94 0 -2 -496 -3 -1102 -3 -776 0 -1115 3
-1143 11 -53 15 -129 91 -144 144 -15 56 -15 2334 0 2389 14 50 83 123 134
141 34 12 217 14 1133 15 l1092 0 0 -21z m1505 -8 c467 -101 853 -441 998
-879 59 -177 72 -256 72 -442 0 -186 -13 -266 -71 -440 -62 -187 -157 -342
-303 -493 -245 -255 -557 -397 -911 -414 -445 -22 -871 181 -1145 545 -201
268 -296 627 -254 962 76 614 550 1094 1165 1179 103 15 343 5 449 -18z m3170
18 c53 -15 129 -91 144 -144 15 -56 15 -2334 0 -2390 -15 -53 -91 -129 -144
-144 -28 -8 -367 -11 -1142 -11 -607 0 -1103 2 -1103 5 0 2 23 26 51 52 28 26
84 86 123 133 591 704 564 1718 -63 2384 -134 141 -257 126 1007 126 764 0
1099 -3 1127 -11z"/>
<path d="M4334 5266 c-171 -39 -338 -148 -452 -296 -42 -54 -92 -159 -116
-244 -34 -115 -36 -283 -6 -400 67 -262 276 -472 545 -547 112 -31 278 -31
389 0 270 75 479 285 546 547 27 106 27 272 0 380 -63 251 -259 460 -505 541
-99 32 -301 41 -401 19z m297 -454 c108 -53 171 -151 177 -274 4 -65 0 -85
-21 -131 -14 -30 -41 -73 -62 -95 -119 -132 -336 -130 -454 4 -64 73 -76 106
-76 214 0 85 3 100 27 141 35 60 113 129 169 151 62 25 178 19 240 -10z"/>
<path d="M7160 4720 c-108 -20 -180 -108 -180 -220 0 -128 91 -221 219 -221
126 -1 224 96 224 221 0 139 -128 245 -263 220z"/>
</g>
</svg>
