<?xml version="1.0" standalone="no"?>
<!DOCTYPE svg PUBLIC "-//W3C//DTD SVG 20010904//EN"
 "http://www.w3.org/TR/2001/REC-SVG-20010904/DTD/svg10.dtd">
<svg version="1.0" xmlns="http://www.w3.org/2000/svg"
 width="512.000000pt" height="512.000000pt" viewBox="0 0 512.000000 512.000000"
 preserveAspectRatio="xMidYMid meet">

<g transform="translate(0.000000,512.000000) scale(0.100000,-0.100000)"
fill="#fff" stroke="none">
<path d="M3575 3850 c-107 -17 -238 -59 -343 -111 -77 -38 -171 -101 -376
-255 -168 -125 -282 -204 -296 -204 -14 0 -129 80 -298 206 -207 155 -300 217
-376 254 -111 54 -241 95 -334 106 -56 6 -62 5 -86 -19 -30 -30 -33 -66 -8
-96 12 -16 43 -27 115 -42 114 -23 227 -65 312 -117 33 -20 168 -117 300 -216
292 -219 303 -226 375 -226 72 0 83 7 376 227 262 196 344 249 445 286 122 46
214 62 354 61 247 0 320 -30 815 -328 324 -195 386 -236 402 -266 17 -31 19
-56 16 -235 -3 -170 -6 -205 -21 -233 -21 -39 -85 -112 -98 -112 -5 0 -9 26
-9 58 -1 190 -188 294 -375 208 l-54 -24 -25 42 c-66 114 -196 172 -328 147
-85 -15 -147 -49 -215 -117 -61 -61 -62 -61 -80 -41 -55 61 -179 104 -273 93
-66 -8 -143 -42 -192 -85 l-36 -31 -61 60 c-167 168 -418 170 -588 5 l-53 -51
-53 51 c-171 165 -421 162 -590 -7 l-59 -58 -36 31 c-49 43 -126 77 -192 85
-94 11 -218 -32 -273 -93 -18 -20 -19 -20 -80 41 -68 68 -130 102 -215 117
-132 25 -262 -33 -328 -147 l-25 -42 -54 24 c-188 86 -375 -18 -375 -208 0
-32 -4 -58 -9 -58 -13 0 -77 73 -98 112 -15 28 -18 63 -21 233 -2 176 -1 204
15 235 15 30 74 69 403 267 372 224 472 275 593 304 53 13 77 38 77 81 0 39
-32 68 -76 68 -42 0 -191 -48 -266 -86 -91 -46 -768 -455 -802 -484 -18 -16
-45 -53 -62 -82 l-29 -53 -3 -212 c-5 -304 8 -339 183 -513 l95 -95 0 -112 c0
-106 1 -113 26 -143 55 -64 -32 -60 1268 -60 l1184 0 4 -89 c2 -71 7 -95 24
-117 41 -55 70 -69 155 -73 91 -4 131 9 148 45 16 35 14 48 -10 78 -19 24 -26
26 -96 26 l-75 0 4 243 c3 213 5 246 22 277 36 68 66 99 127 129 109 55 225
36 309 -49 73 -72 80 -103 80 -372 l0 -228 -53 0 c-43 0 -58 -5 -75 -23 -27
-29 -28 -67 -3 -98 15 -19 30 -24 87 -27 58 -3 76 0 113 20 63 34 81 73 81
175 l0 83 565 0 c620 0 596 -2 649 60 25 30 26 37 26 143 l0 112 95 95 c171
170 185 206 185 491 0 231 -11 279 -84 353 -50 52 -756 477 -871 526 -132 54
-254 80 -400 85 -71 2 -157 0 -190 -5z m-2509 -1045 c66 -19 121 -67 150 -129
23 -49 24 -60 24 -293 l0 -243 -200 0 -201 0 3 288 c3 285 3 287 27 321 24 34
89 70 127 71 11 0 43 -7 70 -15z m1263 -15 c61 -30 98 -67 125 -122 26 -51 26
-54 26 -290 l0 -238 -271 0 -271 0 4 233 c4 249 8 271 64 344 27 36 99 81 147
94 46 12 133 2 176 -21z m648 15 c55 -16 126 -63 143 -94 9 -18 5 -21 -51 -37
-124 -35 -234 -135 -281 -256 -15 -38 -22 -84 -26 -165 l-5 -113 -58 0 -59 0
0 235 c0 253 3 273 56 342 28 37 99 82 147 93 50 12 80 11 134 -5z m1209 -4
c23 -10 52 -34 65 -52 21 -30 25 -48 29 -157 5 -115 7 -125 29 -143 13 -10 34
-19 48 -19 34 0 73 42 73 79 0 88 82 171 169 171 17 0 42 -11 60 -26 l31 -26
0 -244 0 -244 -130 0 c-124 0 -130 1 -130 20 0 29 -44 70 -75 70 -31 0 -75
-41 -75 -70 0 -19 -5 -20 -200 -20 l-200 0 0 236 c0 154 4 251 12 277 18 61
83 125 148 147 69 24 95 24 146 1z m-2535 -62 c51 -17 97 -55 119 -99 18 -36
20 -59 20 -270 l0 -230 -200 0 -200 0 0 213 c0 120 5 229 11 251 21 74 112
144 190 146 14 0 41 -5 60 -11z m1934 0 c23 -7 57 -28 81 -53 25 -24 46 -58
53 -81 6 -24 11 -128 11 -252 l0 -213 -64 0 -64 0 -4 118 c-4 106 -7 124 -35
184 -36 77 -98 148 -160 185 -24 14 -43 29 -43 34 0 13 67 63 102 76 43 15 74
15 123 2z m-3002 -73 c39 -16 82 -61 96 -99 7 -17 11 -111 11 -228 l0 -199
-130 0 -130 0 0 244 0 244 31 26 c34 29 73 33 122 12z"/>
<path d="M2872 1577 c-25 -14 -101 -137 -108 -177 -8 -38 29 -80 70 -80 38 0
57 18 109 106 50 83 49 122 -4 149 -34 18 -37 18 -67 2z"/>
<path d="M3430 1577 c-13 -7 -31 -25 -40 -40 -14 -25 -13 -30 14 -83 16 -30
42 -73 58 -95 23 -32 34 -39 63 -39 41 0 75 32 75 69 0 39 -86 180 -116 191
-30 12 -24 12 -54 -3z"/>
<path d="M3136 1529 c-25 -20 -26 -24 -26 -124 0 -100 1 -104 26 -124 30 -24
43 -26 77 -10 35 16 47 50 47 134 0 84 -12 118 -47 134 -34 16 -47 14 -77 -10z"/>
</g>
</svg>
