<?xml version="1.0" standalone="no"?>
<!DOCTYPE svg PUBLIC "-//W3C//DTD SVG 20010904//EN"
 "http://www.w3.org/TR/2001/REC-SVG-20010904/DTD/svg10.dtd">
<svg version="1.0" xmlns="http://www.w3.org/2000/svg"
 width="512.000000pt" height="512.000000pt" viewBox="0 0 512.000000 512.000000"
 preserveAspectRatio="xMidYMid meet">

<g transform="translate(0.000000,512.000000) scale(0.100000,-0.100000)"
fill="#fff" stroke="none">
<path d="M442 5103 c-18 -9 -43 -30 -55 -47 l-22 -31 -3 -2006 -2 -2007 -123
-3 c-134 -4 -169 -16 -211 -72 -32 -43 -28 -199 8 -320 86 -288 289 -492 583
-584 l88 -28 1855 0 1855 0 88 28 c240 75 420 225 530 444 63 123 104 347 78
425 -15 46 -56 84 -106 97 -22 6 -86 11 -142 11 l-103 0 -2 2008 -3 2007 -22
31 c-50 69 133 64 -2175 64 -1898 0 -2086 -2 -2116 -17z m4018 -2188 l0 -1905
-150 0 -150 0 0 1693 c0 1629 -1 1694 -19 1727 -10 19 -36 45 -57 57 l-39 23
-1485 0 -1485 0 -39 -23 c-21 -12 -47 -38 -57 -57 -18 -33 -19 -98 -19 -1727
l0 -1693 -150 0 -150 0 0 1905 0 1905 1900 0 1900 0 0 -1905z m-2050 570 l0
-725 -575 0 -575 0 0 197 0 198 284 285 c236 237 286 292 295 325 11 42 2 95
-22 126 -38 50 -129 74 -180 48 -12 -6 -102 -90 -199 -187 l-178 -177 0 318 0
317 575 0 575 0 0 -725z m1450 0 l0 -725 -575 0 -575 0 0 725 0 725 575 0 575
0 0 -725z m-1450 -1750 l0 -725 -575 0 -575 0 0 725 0 725 575 0 575 0 0 -725z
m1450 0 l0 -725 -575 0 -575 0 0 725 0 725 575 0 575 0 0 -725z m935 -1047
c-17 -59 -71 -153 -118 -204 -64 -71 -147 -125 -235 -156 l-67 -23 -1815 0
-1815 0 -67 23 c-88 31 -171 85 -235 156 -47 51 -101 145 -118 204 l-6 22
2241 0 2241 0 -6 -22z"/>
<path d="M1956 3430 c-38 -12 -203 -174 -222 -217 -19 -44 -18 -69 7 -120 35
-72 117 -101 192 -69 40 17 192 171 206 209 43 114 -68 233 -183 197z"/>
</g>
</svg>
