<?xml version="1.0" standalone="no"?>
<!DOCTYPE svg PUBLIC "-//W3C//DTD SVG 20010904//EN"
 "http://www.w3.org/TR/2001/REC-SVG-20010904/DTD/svg10.dtd">
<svg version="1.0" xmlns="http://www.w3.org/2000/svg"
 width="250.000000pt" height="250.000000pt" viewBox="0 0 250.000000 250.000000"
 preserveAspectRatio="xMidYMid meet">

<g transform="translate(0.000000,250.000000) scale(0.100000,-0.100000)"
fill="#000000" stroke="none">
<path d="M1010 2194 c-182 -36 -284 -140 -266 -271 18 -133 172 -274 325 -299
23 -4 41 -9 41 -13 0 -3 -61 -34 -136 -69 -123 -57 -137 -62 -148 -47 -7 10
-22 15 -37 13 -20 -2 -24 -8 -23 -35 2 -26 -3 -33 -25 -39 -14 -4 -35 -8 -46
-9 -26 -1 -65 -35 -65 -55 0 -9 7 -25 15 -36 8 -10 15 -34 15 -53 1 -97 71
-194 148 -207 26 -4 42 -12 42 -20 0 -11 -7 -13 -27 -8 -22 6 -25 4 -20 -10 6
-15 3 -17 -23 -11 -33 7 -36 0 -18 -40 7 -16 23 -28 40 -32 29 -6 32 -14 19
-48 -7 -16 -18 -19 -84 -20 -66 0 -79 -3 -101 -24 -14 -14 -26 -33 -26 -44 0
-14 -5 -18 -17 -14 -151 42 -267 84 -271 99 -2 10 -25 29 -50 43 l-45 25 6
-77 c9 -123 60 -254 136 -351 23 -28 41 -53 41 -54 0 -2 -26 -4 -57 -5 -201
-8 -353 -38 -353 -68 0 -29 150 -59 400 -80 158 -13 1203 -17 1468 -6 389 17
632 48 632 82 0 18 -63 37 -180 53 -63 9 -129 17 -147 18 l-32 3 45 74 c48 78
77 144 87 199 6 32 6 32 -32 32 -31 0 -40 -5 -49 -25 -7 -15 -20 -25 -32 -25
-19 0 -21 4 -15 48 4 26 13 61 20 77 8 17 19 60 24 95 12 75 33 108 84 133 55
26 50 52 -13 67 -77 19 -94 10 -130 -66 -37 -75 -62 -95 -165 -124 -38 -11
-92 -29 -120 -39 -34 -12 -67 -17 -101 -14 -33 3 -64 -1 -89 -11 -20 -9 -41
-16 -45 -16 -4 0 -2 21 5 48 7 26 16 46 21 46 5 -1 26 -5 47 -8 32 -6 41 -3
63 19 25 25 26 31 21 84 -6 53 -4 60 19 82 14 13 42 51 62 84 20 33 41 63 46
67 6 4 86 35 179 69 92 34 167 66 167 71 0 5 -8 7 -17 4 -10 -3 -79 -24 -153
-47 -301 -91 -356 -110 -368 -125 -8 -8 -21 -14 -30 -12 -24 5 -17 59 11 80
18 14 19 18 5 18 -9 0 -30 11 -46 25 -32 27 -87 33 -122 15 -11 -6 -28 -31
-40 -57 -18 -41 -19 -48 -5 -55 25 -15 19 -39 -9 -32 -33 8 -61 -9 -76 -47
-10 -24 -11 -36 -2 -50 16 -24 15 -45 -3 -94 -8 -22 -14 -56 -15 -77 0 -27
-10 -49 -41 -88 -41 -53 -56 -100 -45 -144 5 -19 15 -27 41 -32 29 -5 35 -11
35 -31 0 -23 -3 -24 -37 -19 -21 3 -75 8 -120 12 l-83 6 0 98 c0 92 2 103 35
171 48 101 47 139 -5 191 -22 22 -40 49 -40 59 0 10 -4 21 -10 24 -5 3 -10 19
-10 36 0 27 3 29 35 29 41 0 44 9 10 34 -14 10 -25 29 -25 40 0 39 -23 58 -77
63 -46 5 -53 3 -67 -20 -11 -15 -30 -27 -51 -31 -42 -8 -45 -23 -7 -39 22 -10
28 -19 30 -52 2 -22 10 -50 17 -62 19 -28 6 -33 -86 -33 -67 0 -69 1 -85 33
-9 17 -27 44 -41 59 -23 24 -24 29 -13 60 16 44 88 91 274 178 l141 67 120 6
c66 4 167 15 225 25 138 24 189 13 190 -40 0 -23 -45 -56 -86 -64 -22 -4 -70
2 -127 15 -129 30 -152 32 -177 14 -19 -13 -21 -21 -15 -59 7 -48 2 -53 -27
-27 -20 18 -25 4 -6 -15 15 -15 45 -16 53 -1 4 5 1 23 -5 40 -26 61 20 73 150
39 41 -11 95 -20 120 -20 89 0 149 56 122 114 -17 38 -65 42 -211 18 -160 -27
-280 -38 -266 -23 32 32 449 165 619 197 l99 18 -34 29 c-59 49 -271 179 -364
223 -138 66 -250 95 -380 99 -60 2 -121 1 -135 -1z m220 -19 c111 -17 210 -49
319 -103 85 -43 346 -210 339 -217 -2 -3 -42 -12 -89 -21 -142 -26 -404 -107
-552 -171 -88 -37 -129 -40 -208 -17 -147 44 -248 140 -280 267 -14 59 -2 110
38 157 51 61 123 95 235 109 92 12 94 12 198 -4z m600 -923 c0 -18 -54 -102
-65 -102 -17 0 -21 47 -7 70 30 49 72 67 72 32z m231 -448 c8 -4 14 -83 7 -85
-18 -4 -184 -26 -186 -24 -2 2 4 17 12 34 9 16 16 44 16 62 l0 32 71 -7 c39
-3 75 -9 80 -12z m-1461 -382 c165 -24 414 -35 790 -36 366 -1 407 1 554 23
154 22 277 23 291 1 31 -51 -1609 -67 -1902 -18 -40 6 -73 15 -73 19 0 4 30
10 68 14 37 3 74 7 82 9 26 4 112 -1 190 -12z"/>
</g>
</svg>
