<?xml version="1.0" standalone="no"?>
<!DOCTYPE svg PUBLIC "-//W3C//DTD SVG 20010904//EN"
 "http://www.w3.org/TR/2001/REC-SVG-20010904/DTD/svg10.dtd">
<svg version="1.0" xmlns="http://www.w3.org/2000/svg"
 width="920.000000pt" height="512.000000pt" viewBox="0 0 920.000000 512.000000"
 preserveAspectRatio="xMidYMid meet">

<g transform="translate(0.000000,512.000000) scale(0.100000,-0.100000)"
fill="#000000" stroke="none">
<path d="M4465 5109 c-269 -37 -518 -195 -672 -426 -127 -192 -181 -412 -154
-633 48 -387 383 -1563 825 -2895 l73 -220 -203 -206 -204 -206 0 -48 0 -48
202 -203 c215 -217 240 -235 301 -215 23 8 99 78 235 215 l202 203 0 48 0 48
-204 206 -203 206 78 235 c357 1078 671 2142 778 2640 30 135 51 285 51 355 0
120 -47 311 -104 423 -93 182 -287 366 -472 448 -146 65 -368 95 -529 73z
m350 -118 c302 -80 533 -306 620 -608 38 -128 42 -239 16 -398 -47 -282 -204
-870 -436 -1625 -150 -487 -408 -1290 -415 -1290 -7 0 -272 823 -416 1295
-248 807 -407 1410 -444 1680 -50 356 144 716 475 883 65 33 174 68 252 82 78
14 258 4 348 -19z m-28 -4323 c101 -101 183 -187 183 -193 0 -6 -83 -93 -185
-195 l-185 -185 -185 185 c-102 102 -185 189 -185 195 0 10 360 375 370 375 3
0 87 -82 187 -182z"/>
<path d="M4464 619 c-56 -56 -105 -112 -108 -125 -10 -37 14 -71 117 -171 126
-124 128 -124 254 0 112 109 130 137 113 177 -6 15 -56 71 -109 124 -132 129
-130 129 -267 -5z m209 -77 l67 -68 -70 -69 -70 -69 -70 69 -70 69 67 68 c37
38 70 68 73 68 3 0 36 -30 73 -68z"/>
</g>
</svg>
