<?xml version="1.0" standalone="no"?>
<!DOCTYPE svg PUBLIC "-//W3C//DTD SVG 20010904//EN"
 "http://www.w3.org/TR/2001/REC-SVG-20010904/DTD/svg10.dtd">
<svg version="1.0" xmlns="http://www.w3.org/2000/svg"
 width="512.000000pt" height="512.000000pt" viewBox="0 0 512.000000 512.000000"
 preserveAspectRatio="xMidYMid meet">

<g transform="translate(0.000000,512.000000) scale(0.100000,-0.100000)"
fill="#000000" stroke="none">
<path d="M3520 5114 c-477 -61 -853 -301 -1090 -697 -172 -288 -237 -649 -174
-977 111 -586 552 -1030 1141 -1147 134 -26 406 -24 538 5 134 30 211 56 330
112 409 192 700 568 791 1025 27 136 25 407 -4 540 -29 130 -55 209 -108 322
-190 410 -559 700 -1011 794 -95 20 -334 33 -413 23z m320 -218 c319 -48 626
-236 809 -496 49 -68 151 -261 151 -285 0 -12 -2327 -641 -2337 -632 -25 26
-30 261 -8 397 84 515 492 929 995 1010 41 6 82 13 90 15 44 8 217 3 300 -9z
m1020 -998 c0 -7 5 -58 10 -113 25 -254 -47 -533 -195 -761 -75 -116 -233
-274 -348 -348 -383 -250 -837 -274 -1234 -66 -239 125 -442 342 -548 587
l-34 78 47 13 c129 36 2288 620 2295 621 4 1 7 -5 7 -11z"/>
<path d="M823 3705 c-403 -73 -714 -396 -774 -805 -15 -105 -6 -258 21 -365
23 -93 80 -217 141 -307 49 -74 1878 -1912 2004 -2015 98 -79 249 -155 370
-185 136 -34 334 -32 468 5 404 111 684 458 704 872 7 134 -7 228 -51 358 -71
208 -25 156 -1091 1225 -528 530 -995 992 -1037 1026 -79 63 -189 123 -288
158 -134 46 -322 59 -467 33z m357 -216 c99 -27 181 -67 260 -128 36 -27 256
-241 490 -475 l425 -426 -528 -527 -527 -528 -421 420 c-512 512 -539 543
-593 705 -68 203 -45 438 61 620 47 80 178 213 257 259 173 102 381 131 576
80z m1776 -1631 c463 -465 494 -501 544 -627 55 -141 67 -322 31 -462 -40
-156 -142 -313 -263 -404 -83 -63 -206 -121 -293 -140 -90 -19 -240 -19 -330
0 -87 18 -211 77 -290 138 -33 25 -251 237 -485 471 l-425 426 525 525 c289
289 527 525 530 525 3 0 208 -204 456 -452z"/>
</g>
</svg>
